<svg xmlns="http://www.w3.org/2000/svg" width="8" height="11" viewBox="0 0 8 11" fill="none">
  <path d="M1.99997 1L1.99619 1.01942C1.86667 1.66673 1.86667 2.33327 1.99619 2.98058L1.99997 3H0.999969L0.996185 3.01942C0.866669 3.66673 0.866669 4.33327 0.996185 4.98058L0.999969 5H1.99997L1.99619 5.01942C1.86667 5.66673 1.86667 6.33327 1.99619 6.98058L1.99997 7H5.99997L6.00388 6.98058C6.13339 6.33327 6.13339 5.66673 6.00388 5.01942L5.99997 5H6.99997L7.00388 4.98058C7.13339 4.33327 7.13339 3.66673 7.00388 3.01942L6.99997 3H5.99997L6.00388 2.98058C6.13339 2.33327 6.13339 1.66673 6.00388 1.01942L5.99997 1H1.99997Z" fill="#CDD6F4"/>
</svg>
