<svg xmlns="http://www.w3.org/2000/svg" width="30" height="24" viewBox="0 0 30 24" fill="none">
  <g filter="url(#filter0_f_5_253)">
    <path fill-rule="evenodd" clip-rule="evenodd" d="M11.0009 4H12.9991L13.003 4.01942C13.0677 4.34307 13.1 4.67154 13.1 5H16.9C16.9 4.67154 16.9324 4.34307 16.997 4.01942L17.0009 4H18.9991L19.003 4.01942C19.0677 4.34307 19.1 4.67154 19.1 5H22V5.00217L22.0015 5.00971C22.0662 5.33336 22.0662 5.66664 22.0015 5.99029L21.9996 6H22.9991L23.003 6.01942C23.1324 6.66673 23.1324 7.33327 23.003 7.98058L23 7.99567V8H23.9991L24.003 8.01942C24.1324 8.66673 24.1324 9.33327 24.003 9.98058L23.9991 10H24.4991L24.503 10.0194C24.6324 10.6667 24.6324 11.3333 24.503 11.9806L24.4991 12H24.9991L25.003 12.0194C25.1324 12.6667 25.1324 13.3333 25.003 13.9806L24.9991 14L25.003 14.0194C25.1324 14.6667 25.1324 15.3333 25.003 15.9806L24.9991 16L25.003 16.0194C25.1324 16.6667 25.1324 17.3333 25.003 17.9806L24.9991 18H22.9991L23.003 18.0194C23.1324 18.6667 23.1324 19.3333 23.003 19.9806L22.9991 20H19.0009L18.997 19.9806C18.8677 19.3333 18.8677 18.6667 18.997 18.0194L19.0009 18H20V17.9977L19.9985 17.9903C19.9338 17.6666 19.9338 17.3334 19.9985 17.0097L20 17.0023V17H17V17.0022L17.0015 17.0097C17.0662 17.3334 17.0662 17.6666 17.0015 17.9903L16.9996 18H13V17.9977L12.9985 17.9903C12.9338 17.6666 12.9338 17.3334 12.9985 17.0097L13 17.0023V17H10V17.0022L10.0015 17.0097C10.0662 17.3334 10.0662 17.6666 10.0015 17.9903L9.99957 18H10.9991L11.003 18.0194C11.1324 18.6667 11.1324 19.3333 11.003 19.9806L10.9991 20H7.00092L6.99703 19.9806C6.86769 19.3333 6.86769 18.6667 6.99703 18.0194L7.00092 18H5.00091L4.99703 17.9806C4.86769 17.3333 4.86769 16.6667 4.99703 16.0194L5.00091 16L4.99703 15.9806C4.86769 15.3333 4.86769 14.6667 4.99703 14.0194L5.00091 14L4.99703 13.9806C4.86769 13.3333 4.86769 12.6667 4.99703 12.0194L5.00091 12H5.50091L5.49703 11.9806C5.36769 11.3333 5.36769 10.6667 5.49703 10.0194L5.50091 10H6.00092L5.99703 9.98058C5.86769 9.33327 5.86769 8.66673 5.99703 8.01942L6.00092 8H7V7.99542L6.99703 7.98058C6.86769 7.33327 6.86769 6.66673 6.99703 6.01942L7 6.00458V6H8V5.99771L7.99852 5.99029C7.93384 5.66664 7.93384 5.33336 7.99852 5.00971L8 5.00229V5H10.9C10.9 4.67154 10.9324 4.34307 10.997 4.01942L11.0009 4ZM9.99913 10L10.003 10.0194C10.1324 10.6667 10.1324 11.3333 10.003 11.9806L9.99913 12L10.003 12.0194C10.1324 12.6667 10.1324 13.3333 10.003 13.9806L9.99913 14H14.0009L13.997 13.9806C13.8677 13.3333 13.8677 12.6667 13.997 12.0194L14.0009 12L13.997 11.9806C13.8677 11.3333 13.8677 10.6667 13.997 10.0194L14.0009 10H9.99913ZM15.9991 10L16.003 10.0194C16.1324 10.6667 16.1324 11.3333 16.003 11.9806L15.9991 12L16.003 12.0194C16.1324 12.6667 16.1324 13.3333 16.003 13.9806L15.9991 14H20.0009L19.997 13.9806C19.8677 13.3333 19.8677 12.6667 19.997 12.0194L20.0009 12L19.997 11.9806C19.8677 11.3333 19.8677 10.6667 19.997 10.0194L20.0009 10H15.9991Z" fill="var(--tx-2)"/>
  </g>
  <path fill-rule="evenodd" clip-rule="evenodd" d="M11.0009 4H12.9991L13.003 4.01942C13.0677 4.34307 13.1 4.67154 13.1 5H16.9C16.9 4.67154 16.9324 4.34307 16.997 4.01942L17.0009 4H18.9991L19.003 4.01942C19.0677 4.34307 19.1 4.67154 19.1 5H22V5.00217L22.0015 5.00971C22.0662 5.33336 22.0662 5.66664 22.0015 5.99029L21.9996 6H22.9991L23.003 6.01942C23.1324 6.66673 23.1324 7.33327 23.003 7.98058L23 7.99567V8H23.9991L24.003 8.01942C24.1324 8.66673 24.1324 9.33327 24.003 9.98058L23.9991 10H24.4991L24.503 10.0194C24.6324 10.6667 24.6324 11.3333 24.503 11.9806L24.4991 12H24.9991L25.003 12.0194C25.1324 12.6667 25.1324 13.3333 25.003 13.9806L24.9991 14L25.003 14.0194C25.1324 14.6667 25.1324 15.3333 25.003 15.9806L24.9991 16L25.003 16.0194C25.1324 16.6667 25.1324 17.3333 25.003 17.9806L24.9991 18H22.9991L23.003 18.0194C23.1324 18.6667 23.1324 19.3333 23.003 19.9806L22.9991 20H19.0009L18.997 19.9806C18.8677 19.3333 18.8677 18.6667 18.997 18.0194L19.0009 18H20V17.9977L19.9985 17.9903C19.9338 17.6666 19.9338 17.3334 19.9985 17.0097L20 17.0023V17H17V17.0022L17.0015 17.0097C17.0662 17.3334 17.0662 17.6666 17.0015 17.9903L16.9996 18H13V17.9977L12.9985 17.9903C12.9338 17.6666 12.9338 17.3334 12.9985 17.0097L13 17.0023V17H10V17.0022L10.0015 17.0097C10.0662 17.3334 10.0662 17.6666 10.0015 17.9903L9.99957 18H10.9991L11.003 18.0194C11.1324 18.6667 11.1324 19.3333 11.003 19.9806L10.9991 20H7.00092L6.99703 19.9806C6.86769 19.3333 6.86769 18.6667 6.99703 18.0194L7.00092 18H5.00091L4.99703 17.9806C4.86769 17.3333 4.86769 16.6667 4.99703 16.0194L5.00091 16L4.99703 15.9806C4.86769 15.3333 4.86769 14.6667 4.99703 14.0194L5.00091 14L4.99703 13.9806C4.86769 13.3333 4.86769 12.6667 4.99703 12.0194L5.00091 12H5.50091L5.49703 11.9806C5.36769 11.3333 5.36769 10.6667 5.49703 10.0194L5.50091 10H6.00092L5.99703 9.98058C5.86769 9.33327 5.86769 8.66673 5.99703 8.01942L6.00092 8H7V7.99542L6.99703 7.98058C6.86769 7.33327 6.86769 6.66673 6.99703 6.01942L7 6.00458V6H8V5.99771L7.99852 5.99029C7.93384 5.66664 7.93384 5.33336 7.99852 5.00971L8 5.00229V5H10.9C10.9 4.67154 10.9324 4.34307 10.997 4.01942L11.0009 4ZM9.99913 10L10.003 10.0194C10.1324 10.6667 10.1324 11.3333 10.003 11.9806L9.99913 12L10.003 12.0194C10.1324 12.6667 10.1324 13.3333 10.003 13.9806L9.99913 14H14.0009L13.997 13.9806C13.8677 13.3333 13.8677 12.6667 13.997 12.0194L14.0009 12L13.997 11.9806C13.8677 11.3333 13.8677 10.6667 13.997 10.0194L14.0009 10H9.99913ZM15.9991 10L16.003 10.0194C16.1324 10.6667 16.1324 11.3333 16.003 11.9806L15.9991 12L16.003 12.0194C16.1324 12.6667 16.1324 13.3333 16.003 13.9806L15.9991 14H20.0009L19.997 13.9806C19.8677 13.3333 19.8677 12.6667 19.997 12.0194L20.0009 12L19.997 11.9806C19.8677 11.3333 19.8677 10.6667 19.997 10.0194L20.0009 10H15.9991Z" fill="var(--tx-2)"/>
  <defs>
    <filter id="filter0_f_5_253" x="0.900024" y="0" width="28.2" height="24" filterUnits="userSpaceOnUse" color-interpolation-filters="sRGB">
      <feFlood flood-opacity="0" result="BackgroundImageFix"/>
      <feBlend mode="normal" in="SourceGraphic" in2="BackgroundImageFix" result="shape"/>
      <feGaussianBlur stdDeviation="2" result="effect1_foregroundBlur_5_253"/>
    </filter>
  </defs>
</svg>