<svg xmlns="http://www.w3.org/2000/svg" width="22" height="22" viewBox="0 0 22 22" fill="none">
  <path d="M4 8H6L6.00388 8.01942C6.1015 8.50751 6.12551 9.00653 6.07592 9.5H8L8.00388 9.51942C8.1015 10.0075 8.12551 10.5065 8.07592 11H10L10.0039 11.0194C10.1015 11.5075 10.1255 12.0065 10.0759 12.5H11.9241C11.8745 12.0065 11.8985 11.5075 11.9961 11.0194L12 11H13.9241C13.8745 10.5065 13.8985 10.0075 13.9961 9.51942L14 9.5H15.9241C15.8745 9.00653 15.8985 8.50751 15.9961 8.01942L16 8H18L18.0039 8.01942C18.1333 8.66673 18.1333 9.33327 18.0039 9.98058L18 10H16.0759C16.1255 10.4935 16.1015 10.9925 16.0039 11.4806L16 11.5H14.0759C14.1255 11.9935 14.1015 12.4925 14.0039 12.9806L14 13H12.0759C12.1255 13.4935 12.1015 13.9925 12.0039 14.4806L12 14.5H10L9.99612 14.4806C9.8985 13.9925 9.87449 13.4935 9.92408 13H8L7.99612 12.9806C7.8985 12.4925 7.87449 11.9935 7.92408 11.5H6L5.99612 11.4806C5.8985 10.9925 5.87449 10.4935 5.92408 10H4L3.99612 9.98058C3.86665 9.33327 3.86665 8.66673 3.99612 8.01942L4 8Z" fill="currentColor"/>
</svg>