<svg xmlns="http://www.w3.org/2000/svg" width="30" height="28" viewBox="0 0 30 28" fill="none" id="github">
  <path fill-rule="evenodd" clip-rule="evenodd" d="M8.99712 4.01942L9.001 4H21.001L21.0049 4.01942C21.1343 4.66673 21.1343 5.33327 21.0049 5.98058L21.001 6H23.001L23.0049 6.01942C23.1344 6.66673 23.1344 7.33327 23.0049 7.98058L23.001 8H24.001L24.0049 8.01942C24.1344 8.66673 24.1344 9.33327 24.0049 9.98058L24.001 10H25.001L25.0049 10.0194C25.1344 10.6667 25.1344 11.3333 25.0049 11.9806L25.001 12L25.0049 12.0194C25.1344 12.6667 25.1344 13.3333 25.0049 13.9806L25.001 14L25.0049 14.0194C25.1344 14.6667 25.1344 15.3333 25.0049 15.9806L25.001 16L25.0049 16.0194C25.1344 16.6667 25.1344 17.3333 25.0049 17.9806L25.001 18H24.001L24.0049 18.0194C24.1344 18.6667 24.1344 19.3333 24.0049 19.9806L24.001 20H23.001L23.0049 20.0194C23.1344 20.6667 23.1344 21.3333 23.0049 21.9806L23.001 22H21.001L21.0049 22.0194C21.1343 22.6667 21.1343 23.3333 21.0049 23.9806L21.001 24H9.001L8.99712 23.9806C8.86766 23.3333 8.86766 22.6667 8.99712 22.0194L9.001 22H7.001L6.99712 21.9806C6.86766 21.3333 6.86766 20.6667 6.99712 20.0194L7.001 20H6.001L5.99712 19.9806C5.86766 19.3333 5.86766 18.6667 5.99712 18.0194L6.001 18H5.001L4.99712 17.9806C4.86766 17.3333 4.86766 16.6667 4.99712 16.0194L5.001 16L4.99712 15.9806C4.86766 15.3333 4.86766 14.6667 4.99712 14.0194L5.001 14L4.99712 13.9806C4.86766 13.3333 4.86766 12.6667 4.99712 12.0194L5.001 12L4.99712 11.9806C4.86766 11.3333 4.86766 10.6667 4.99712 10.0194L5.001 10H6.001L5.99712 9.98058C5.86766 9.33327 5.86766 8.66673 5.99712 8.01942L6.001 8H7.001L6.99712 7.98058C6.86766 7.33327 6.86766 6.66673 6.99712 6.01942L7.001 6H9.001L8.99712 5.98058C8.86766 5.33327 8.86766 4.66673 8.99712 4.01942ZM19.9985 17.9903L20.0005 18H17.0005L16.9985 18.0097C16.9338 18.3334 16.9338 18.6666 16.9985 18.9903L17.0005 19H18.0005L17.9985 19.0097C17.9338 19.3334 17.9338 19.6666 17.9985 19.9903L18.0005 20L17.9985 20.0097C17.9338 20.3334 17.9338 20.6666 17.9985 20.9903L18.0005 21L17.9985 21.0097C17.9338 21.3334 17.9338 21.6666 17.9985 21.9903L18.0005 22H11.9996L12.0015 21.9903C12.0662 21.6666 12.0662 21.3334 12.0015 21.0097L11.9996 21L10 21.0022L9.99957 21L10.0015 20.9903C10.0662 20.6666 10.0662 20.3334 10.0015 20.0097L9.99957 20H8.99957L9.00151 19.9903C9.06618 19.6666 9.06618 19.3334 9.00151 19.0097L8.99957 19H8.10198C8.10198 18.6715 8.06962 18.3431 8.00489 18.0194L8.00101 18H9.99957L9.99852 18.0097C9.93384 18.3334 9.93384 18.6666 9.99852 18.9903L10.0005 19H11.0005L10.9985 19.0097C10.9338 19.3334 10.9338 19.6666 10.9985 19.9903L11.0005 20H11.9996L12.0015 19.9903C12.0662 19.6666 12.0662 19.3334 12.0015 19.0097L12.0005 19H12.9996L13.0015 18.9903C13.0662 18.6666 13.0662 18.3334 13.0015 18.0097L12.9996 18H9.99957L10.0015 17.9903C10.0662 17.6666 10.0662 17.3334 10.0015 17.0097L9.99957 17H9.10198C9.10198 16.6715 9.06962 16.3431 9.00489 16.0194L9.00101 16L9.00489 15.9806C9.13435 15.3333 9.13435 14.6667 9.00489 14.0194L9.00101 14L9.00489 13.9806C9.13435 13.3333 9.13435 12.6667 9.00489 12.0194L9.00101 12H10.001L10.0049 11.9806C10.1344 11.3333 10.1344 10.6667 10.0049 10.0194L10.001 10L10.0049 9.98058C10.1344 9.33327 10.1344 8.66673 10.0049 8.01942L10.001 8H12.0005L11.9985 8.00971C11.9338 8.33336 11.9338 8.66664 11.9985 8.99029L12.0005 9H17.9996L18.0015 8.99029C18.0662 8.66664 18.0662 8.33336 18.0015 8.00971L17.9996 8H20.001L19.9971 8.01942C19.8677 8.66673 19.8677 9.33327 19.9971 9.98058L20.001 10L19.9971 10.0194C19.8677 10.6667 19.8677 11.3333 19.9971 11.9806L20.001 12H21.001L20.9971 12.0194C20.8677 12.6667 20.8677 13.3333 20.9971 13.9806L21.001 14L20.9971 14.0194C20.8677 14.6667 20.8677 15.3333 20.9971 15.9806L21.001 16L20.9971 16.0194C20.9324 16.3431 20.9 16.6715 20.9 17H20.0005L19.9985 17.0097C19.9338 17.3334 19.9338 17.6666 19.9985 17.9903Z" fill="currentColor"/>
</svg>