<svg xmlns="http://www.w3.org/2000/svg" viewBox="0 0 22 22" fill="none">
  <path d="M13 3H15L15.0039 3.01942C15.0686 3.34307 15.101 3.67154 15.101 4H17L17.0039 4.01942C17.1333 4.66673 17.1333 5.33327 17.0039 5.98058L17 6H18.5L18.5039 6.01942C18.6333 6.66673 18.6333 7.33327 18.5039 7.98058L18.5 8H18L18.0039 8.01942C18.1333 8.66673 18.1333 9.33327 18.0039 9.98058L18 10H17.101C17.101 10.3285 17.0686 10.6569 17.0039 10.9806L17 11H15L14.9961 10.9806C14.8667 10.3333 14.8667 9.66673 14.9961 9.01942L15 9H15.899C15.899 8.67154 15.9314 8.34307 15.9961 8.01942L16 8H16.5L16.4961 7.98058C16.3667 7.33327 16.3667 6.66673 16.4961 6.01942L16.5 6H15L14.9961 5.98058C14.9314 5.65693 14.899 5.32846 14.899 5H13.101C13.101 5.32846 13.0686 5.65693 13.0039 5.98058L13 6H11L10.9961 5.98058C10.8667 5.33327 10.8667 4.66673 10.9961 4.01942L11 4H12.899C12.899 3.67154 12.9314 3.34307 12.9961 3.01942L13 3Z" fill="currentColor"/>
  <path d="M11 6L11.0039 6.01942C11.1333 6.66673 11.1333 7.33327 11.0039 7.98058L11 8H10L10.0039 8.01942C10.1333 8.66673 10.1333 9.33327 10.0039 9.98058L10 10H10.5L10.5039 10.0194C10.6333 10.6667 10.6333 11.3333 10.5039 11.9806L10.5 12H8.5L8.49612 11.9806C8.36665 11.3333 8.36665 10.6667 8.49612 10.0194L8.5 10H8L7.99612 9.98058C7.86665 9.33327 7.86665 8.66673 7.99612 8.01942L8 8H9L8.99612 7.98058C8.86665 7.33327 8.86665 6.66673 8.99612 6.01942L9 6H11Z" fill="currentColor"/>
  <path d="M11.9961 12.9806L12 13H11L10.9961 13.0194C10.8667 13.6667 10.8667 14.3333 10.9961 14.9806L11 15H9L8.99612 15.0194C8.93139 15.3431 8.89902 15.6715 8.89902 16H7.10098C7.10098 15.6715 7.06862 15.3431 7.00389 15.0194L7 15H5.5L5.50389 14.9806C5.63335 14.3333 5.63335 13.6667 5.50389 13.0194L5.5 13H6L6.00389 12.9806C6.06862 12.6569 6.10098 12.3285 6.10098 12H7L7.00389 11.9806C7.13335 11.3333 7.13335 10.6667 7.00389 10.0194L7 10H5L4.99612 10.0194C4.93139 10.3431 4.89902 10.6715 4.89902 11H4L3.99612 11.0194C3.86666 11.6667 3.86666 12.3333 3.99612 12.9806L4 13H3.5L3.49612 13.0194C3.36666 13.6667 3.36666 14.3333 3.49612 14.9806L3.5 15H5L4.99612 15.0194C4.86666 15.6667 4.86666 16.3333 4.99612 16.9806L5 17H6.89902C6.89902 17.3285 6.93139 17.6569 6.99612 17.9806L7 18H9L9.00389 17.9806C9.06862 17.6569 9.10098 17.3285 9.10098 17H11L11.0039 16.9806C11.1333 16.3333 11.1333 15.6667 11.0039 15.0194L11 15H13L13.0039 14.9806C13.1333 14.3333 13.1333 13.6667 13.0039 13.0194L13 13H14L14.0039 12.9806C14.1333 12.3333 14.1333 11.6667 14.0039 11.0194L14 11H13.5L13.5039 10.9806C13.6333 10.3333 13.6333 9.66673 13.5039 9.01942L13.5 9H11.5L11.4961 9.01942C11.3667 9.66673 11.3667 10.3333 11.4961 10.9806L11.5 11H12L11.9961 11.0194C11.8667 11.6667 11.8667 12.3333 11.9961 12.9806Z" fill="currentColor"/>
</svg>
