<svg xmlns="http://www.w3.org/2000/svg" width="22" height="22" viewBox="0 0 22 22" fill="none">
  <path d="M1.19989 4H20.7999L20.8038 4.01942C20.9332 4.66673 20.9332 5.33327 20.8038 5.98058L20.7999 6H1.19989L1.15678 5.78446C1.05321 5.26662 1.05321 4.73338 1.15678 4.21554L1.19989 4Z" fill="currentColor"/>
  <path d="M1.19989 12L1.15678 11.7845C1.05321 11.2666 1.05321 10.7334 1.15678 10.2155L1.19989 10H20.7999L20.8038 10.0194C20.9332 10.6667 20.9332 11.3333 20.8038 11.9806L20.7999 12H1.19989Z" fill="currentColor"/>
  <path d="M20.7999 18L20.8038 17.9806C20.9332 17.3333 20.9332 16.6667 20.8038 16.0194L20.7999 16H1.19989L1.15678 16.2155C1.05321 16.7334 1.05321 17.2666 1.15678 17.7845L1.19989 18H20.7999Z" fill="currentColor"/>
</svg>