<svg xmlns="http://www.w3.org/2000/svg" width="22" height="22" viewBox="0 0 22 22" fill="none">
  <path d="M12 1C12.066 1.33006 12.066 1.66994 12 2H6.00001C5.93404 1.67004 5.93401 1.33012 5.99998 1.00017L12 1Z" fill="var(--tx-2)"/>
  <path d="M4.49998 4C4.56601 3.66994 4.56601 3.33006 4.49998 3H5.99998C6.06601 2.66994 6.06604 2.33006 6.00001 2H4.00001C3.93404 2.32996 3.93401 2.66988 3.99998 2.99983L3.00001 3C2.93404 3.32996 2.93401 3.66988 2.99998 3.99983L2.50001 4C2.434 4.33006 2.434 4.66994 2.50001 5H2.00001C1.934 5.33006 1.934 5.66994 2.00001 6H1.50001C1.434 6.33006 1.434 6.66994 1.50001 7H1.00001C0.933996 7.33006 0.933996 7.66994 1.00001 8C0.933996 8.33006 0.933996 8.66994 1.00001 9C0.933996 9.33006 0.933996 9.66994 1.00001 10C0.933996 10.3301 0.933996 10.6699 1.00001 11H1.50001C1.434 11.3301 1.434 11.6699 1.50001 12H2.00001C1.934 12.3301 1.934 12.6699 2.00001 13H2.50001C2.434 13.3301 2.434 13.6699 2.50001 14H2.99998C2.93401 14.33 2.93401 14.6699 2.99998 14.9998L3.99998 15C3.93401 15.33 3.93401 15.6699 3.99998 15.9998L5.99998 16C5.93401 16.33 5.93401 16.6699 5.99998 16.9998L12 17C12.066 16.6699 12.066 16.3301 12 16H14C14.066 15.6699 14.066 15.3301 14 15H14.9999L14.9961 15.0193C14.8666 15.6667 14.8666 16.3333 14.9961 16.9807L14.9999 17H16.9999L16.9961 17.0193C16.8666 17.6667 16.8666 18.3333 16.9961 18.9807L16.9999 19H18.9999L18.9961 19.0193C18.8666 19.6667 18.8666 20.3333 18.9961 20.9807L18.9999 21H20.9999L21.0038 20.9808C21.1333 20.3334 21.1333 19.6666 21.0038 19.0192L20.9999 19H18.9999L19.0038 18.9808C19.1333 18.3334 19.1333 17.6666 19.0038 17.0192L18.9999 17H16.9999L17.0038 16.9808C17.1333 16.3334 17.1333 15.6666 17.0038 15.0192L16.9999 15H14.9999C15.066 14.6699 15.066 14.3301 15 14H15.4999C15.566 13.6699 15.566 13.3301 15.4999 13H16C16.066 12.6699 16.066 12.3301 16 12H16.5C16.566 11.6699 16.566 11.3301 16.5 11H17C17.066 10.6699 17.066 10.3301 17 10C17.066 9.66994 17.066 9.33006 17 9C17.066 8.66994 17.066 8.33006 17 8C17.066 7.66994 17.066 7.33006 17 7H16.5C16.566 6.66994 16.566 6.33006 16.5 6H16C16.066 5.66994 16.066 5.33006 16 5H15.5C15.566 4.66994 15.566 4.33006 15.5 4H15C15.066 3.66994 15.066 3.33006 15 3H14C14.0661 2.66994 14.066 2.33006 14 2H12C11.934 2.32988 11.934 2.66983 12 2.99971L13.5 3C13.434 3.32988 13.434 3.66983 13.5 3.99971L14.5 4C14.434 4.33006 14.434 4.66994 14.5 5H15C14.934 5.33006 14.934 5.66994 15 6H15.5C15.434 6.33006 15.434 6.66994 15.5 7H16C15.934 7.33006 15.934 7.66994 16 8C15.934 8.33006 15.934 8.66994 16 9C15.934 9.33006 15.934 9.66994 16 10C15.934 10.3301 15.934 10.6699 16 11H15.5C15.434 11.3301 15.434 11.6699 15.5 12H15C14.934 12.3301 14.934 12.6699 15 13H14.5C14.434 13.3301 14.434 13.6699 14.5 14H13.5C13.4341 14.3299 13.434 14.6698 13.5 14.9997L12 15C11.9341 15.3299 11.9341 15.6701 12 16H5.99998C6.06601 15.6699 6.06601 15.3301 5.99998 15H4.49998C4.56601 14.6699 4.56601 14.3301 4.49998 14H3.50001C3.56604 13.6699 3.56601 13.3301 3.49998 13H2.99998C3.06601 12.6699 3.06601 12.3301 2.99998 12H2.49998C2.56601 11.6699 2.56601 11.3301 2.49998 11H1.99998C2.06601 10.6699 2.06601 10.3301 1.99998 10C2.06601 9.66994 2.06601 9.33006 1.99998 9C2.06601 8.66994 2.06601 8.33006 1.99998 8C2.06601 7.66994 2.06601 7.33006 1.99998 7H2.49998C2.56601 6.66994 2.56601 6.33006 2.49998 6H2.99998C3.06601 5.66994 3.06601 5.33006 2.99998 5H3.49998C3.56601 4.66994 3.56601 4.33006 3.49998 4H4.49998Z" fill="var(--tx-2)"/>
</svg>
