<?xml version="1.0" encoding="UTF-8" standalone="no"?>
<!-- Created with Inkscape (http://www.inkscape.org/) -->
<svg width="256" height="256" viewBox="0 0 256 256" version="1.1" xmlns="http://www.w3.org/2000/svg">
  <style>
    @media (prefers-color-scheme: dark) {
      path {
        fill: #cdd6f4;
      }
    }
    @media (prefers-color-scheme: light) {
      path {
        fill: #4c4f69;
      }
    }
  </style>
  <path fill="white" d="m 37.271484,25.501953 v 12.056641 c 10.161969,-0.07449 18.887071,1.395432 22.742188,5.199218 1.965743,1.895299 3.756011,4.775442 4.517578,13.408204 V 199.83008 c -0.761567,8.63276 -2.551835,11.5129 -4.517578,13.4082 -3.855117,3.80379 -12.580219,5.27371 -22.742188,5.19922 v 12.05664 H 128.0293 c 85.1635,-1.64382 90.95385,-77.36623 90.69336,-102.49609 C 218.98315,102.86818 213.1928,27.145771 128.0293,25.501953 Z M 104.10352,40.09375 c 23.15453,-0.07518 36.38006,0.386779 50.73632,9.072266 19.19925,11.615478 32.16265,38.974387 32.01954,78.832034 0.14311,39.85764 -12.82029,67.21655 -32.01954,78.83203 -16.40715,9.92627 -61.300778,9.0293 -61.300778,9.0293 V 40.136719 c 0,0 7.256658,-0.03223 10.564458,-0.04297 z"/>
</svg>
