<?xml version="1.0" encoding="UTF-8" standalone="no"?>
<!-- Created with Inkscape (http://www.inkscape.org/) -->
<svg width="256" height="256" viewBox="0 0 256 256" version="1.1" xmlns="http://www.w3.org/2000/svg">
  <style>
    @media (prefers-color-scheme: dark) {
      path {
        fill: #cdd6f4;
      }
    }
    @media (prefers-color-scheme: light) {
      path {
        fill: #4c4f69;
      }
    }
  </style>
  <path fill="currentColor" d="M 18.625 0 C 8.3068361 -2.3684734e-15 0 8.3068361 0 18.625 L 0 237.375 C -2.3684734e-15 247.69316 8.3068361 256 18.625 256 L 237.375 256 C 247.69317 256 256 247.69316 256 237.375 L 256 18.625 C 256 8.3068361 247.69317 0 237.375 0 L 18.625 0 z M 37.271484 25.501953 L 128.0293 25.501953 C 213.19271 27.145769 218.98315 102.8682 218.72266 127.99805 C 218.98315 153.12788 213.19271 228.85032 128.0293 230.49414 L 37.271484 230.49414 L 37.271484 218.4375 C 47.433443 218.51199 56.158559 217.04207 60.013672 213.23828 C 61.979413 211.34298 63.769684 208.46283 64.53125 199.83008 L 64.53125 56.166016 C 63.769684 47.533262 61.979413 44.65311 60.013672 42.757812 C 56.158559 38.95403 47.433443 37.484104 37.271484 37.558594 L 37.271484 25.501953 z M 104.10352 40.09375 C 100.79572 40.104489 93.539062 40.136719 93.539062 40.136719 L 93.539062 215.85938 C 93.539063 215.85938 138.43271 216.75634 154.83984 206.83008 C 174.03907 195.21461 187.00248 167.85565 186.85938 127.99805 C 187.00248 88.14044 174.03907 60.781482 154.83984 49.166016 C 140.4836 40.480537 127.25802 40.01857 104.10352 40.09375 z "/>
</svg>
